<?xml version="1.0" encoding="UTF-8" standalone="no"?>
<!-- Created with Inkscape (http://www.inkscape.org/) -->

<svg
   version="1.1"
   id="svg2"
   width="380"
   height="216"
   viewBox="0 0 380 216"
   sodipodi:docname="minneapolis-moline-seeklogo.com.eps"
   xmlns:inkscape="http://www.inkscape.org/namespaces/inkscape"
   xmlns:sodipodi="http://sodipodi.sourceforge.net/DTD/sodipodi-0.dtd"
   xmlns="http://www.w3.org/2000/svg"
   xmlns:svg="http://www.w3.org/2000/svg">
  <defs
     id="defs6" />
  <sodipodi:namedview
     id="namedview4"
     pagecolor="#ffffff"
     bordercolor="#000000"
     borderopacity="0.25"
     inkscape:showpageshadow="2"
     inkscape:pageopacity="0.0"
     inkscape:pagecheckerboard="0"
     inkscape:deskcolor="#d1d1d1" />
  <g
     id="g8"
     inkscape:groupmode="layer"
     inkscape:label="ink_ext_XXXXXX"
     transform="matrix(1.3333333,0,0,-1.3333333,0,216)">
    <g
       id="g10"
       transform="scale(0.1)">
      <path
         d="M 645.715,442.977 H 880.73 v 106.828 l 96.145,95.765 v 214.024 l -24.238,0.004 -111.965,-186.946 -102.195,-92.054 -170.004,279 H 549.574 V 645.57 h 96.141 z m 1328.385,0 h 235.01 v 106.828 l 96.15,95.765 v 214.024 l -24.24,0.004 -111.97,-186.946 -102.19,-92.054 -170,279 h -18.9 V 645.57 h 96.14 z m -622.49,416.617 h 161.14 V 650.863 l -63.18,-63.886 v 58.593 h -97.96 z M 180.59,1613.53 82.5703,1509.38 V 1270.46 H 180.59 V 645.57 L 82.5703,541.422 V 320.871 L 9.05469,259.609 V 85.0117 L 82.5703,5.36719 H 2660.43 L 2843.7,184.465 V 382.82 l -69.06,57.922 V 645.57 h -95.62 v 624.89 l 95.62,108.2 v 234.22 h -345.17 l -179.33,-93.28 -162.09,-264.01 -215.37,357.29 h -357.77 l -54.31,-70.51 v 70.51 H 1100.2 L 906.648,1508.21 765.746,1264.93 550.848,1612.88 Z m 1175.35,-339.06 61.11,67.35 -1.24,-67.35 h 96.03 v -179.6 h -155.9 v 179.6"
         style="fill:#000000;fill-opacity:1;fill-rule:evenodd;stroke:none"
         id="path12" />
      <path
         d="m 1517.39,1591.2 h 334.03 l 290.46,-479.25 283.2,479.25 H 2751 v -208.76 h -97.18 V 634.496 H 2751 V 434.801 h -425.77 v 199.695 h 98.04 V 1035.7 l -69.14,2.63 -212.26,-354.213 -224.33,353.393 h -67.93 V 634.496 h 98.03 V 434.801 h -430.25 v 199.695 h 101.66 v 747.944 h -101.66 z m -1321.398,0 h 334.031 l 290.461,-479.25 283.196,479.25 h 328.17 v -208.76 h -99.42 V 634.496 h 99.42 V 434.801 h -428.01 v 199.695 h 98.03 V 1035.7 l -69.14,2.63 -212.253,-354.213 -224.34,353.393 h -67.93 V 634.496 h 98.031 V 434.801 H 195.992 v 199.695 h 101.66 v 747.944 h -101.66 v 208.76"
         style="fill:#fde833;fill-opacity:1;fill-rule:evenodd;stroke:none"
         id="path14" />
      <path
         d="m 221.734,1591.2 h 308.289 l 305.95,-503.82 300.477,503.82 h 295.4 l 2.24,-191.61 H 1332.43 V 634.496 h 99.42 V 434.801 h -403.44 v 199.695 h 96.23 l 0.02,403.014 h -91 L 832.758,706.641 626.238,1037.51 H 528.207 V 634.496 h 98.031 V 434.801 H 221.734 V 634.496 H 322.059 V 1399.59 H 221.734 v 191.61"
         style="fill:#f21b16;fill-opacity:1;fill-rule:evenodd;stroke:none"
         id="path16" />
      <path
         d="m 1538.02,1591.2 h 316.17 l 303.32,-501.2 295.22,501.2 h 295.4 l 2.25,-191.61 h -96.42 V 634.496 h 94.17 V 434.801 H 2344.7 v 199.695 h 96.23 l 0.01,403.014 h -88.37 L 2154.3,706.641 1942.52,1037.51 h -92.78 V 634.496 h 98.04 V 434.801 h -409.76 v 199.695 h 100.33 v 765.094 h -100.33 v 191.61"
         style="fill:#f21b16;fill-opacity:1;fill-rule:evenodd;stroke:none"
         id="path18" />
      <path
         d="M 388.418,1093.42 H 2568.69 l 54.72,-55.78 V 919.199 l -55.75,-55.601 H 389.844 l -56.129,54.824 v 119.228 l 54.703,55.77"
         style="fill:#000000;fill-opacity:1;fill-rule:evenodd;stroke:none"
         id="path20" />
      <path
         d="m 402.926,1077.48 2148.434,0.31 h 1.58 l 1.14,-1.08 48.96,-46.12 1.25,-1.18 v -1.7 -97.94 -1.731 l -1.29,-1.184 -49.95,-45.98 -1.15,-1.055 h -1.53 -2146.054 -1.539 l -1.156,1.071 -48.527,45.035 -1.27,1.176 v 1.718 98.6 1.65 l 1.192,1.16 47.136,46.12 1.161,1.13 z m 0,-3.95 2148.434,0.3 48.97,-46.12 v -97.94 l -49.96,-45.981 H 404.316 l -48.527,45.031 v 98.6 l 47.137,46.11"
         style="fill:#ffff00;fill-opacity:1;fill-rule:evenodd;stroke:none"
         id="path22" />
      <path
         d="m 1156.36,930.535 h -43.24 l -5.95,-22.441 h -38.78 l 46.16,135.926 h 41.38 l 46.19,-135.926 h -39.73 z m -7.95,29.399 -13.59,48.866 -13.5,-48.866 z m 76.93,84.086 h 56.73 c 12.35,0 21.61,-3.61 27.75,-10.86 6.15,-7.21 9.23,-17.53 9.23,-30.85 0,-13.736 -3.34,-24.466 -10.05,-32.189 -6.71,-7.719 -16.95,-11.582 -30.71,-11.582 h -18.67 v -50.445 h -34.28 z m 34.28,-57.946 h 8.36 c 6.58,0 11.19,1.391 13.86,4.207 2.65,2.821 3.98,6.426 3.98,10.789 0,4.28 -1.15,7.91 -3.47,10.86 -2.28,2.97 -6.63,4.46 -13.01,4.46 h -9.72 z m 306.9,57.946 h 38.98 V 908.094 h -38.98 z m 183.68,-58.375 h 57.46 V 960.16 h -57.46 z m 89.7,71.575 h 41.77 l 36.38,-69.193 34.72,69.193 h 33.56 V 908.094 h -33.56 v 75.461 l -43.97,-75.461 -38.67,75.461 v -75.461 h -30.23 z m -1413.845,0 h 41.769 l 36.379,-69.193 34.723,69.193 h 33.558 V 908.094 h -33.558 v 75.461 l -43.973,-75.461 -38.672,75.461 V 908.094 H 426.055 Z M 2012.32,973.414 c 0,22.266 5.46,39.606 16.33,51.996 10.9,12.41 26.07,18.61 45.5,18.61 19.93,0 35.29,-6.1 46.08,-18.3 10.76,-12.16 16.16,-29.247 16.16,-51.197 0,-15.945 -2.36,-29.027 -7.08,-39.226 -4.7,-10.192 -11.51,-18.133 -20.4,-23.817 -8.92,-5.687 -19.99,-8.511 -33.28,-8.511 -13.5,0 -24.68,2.445 -33.54,7.336 -8.84,4.922 -16,12.672 -21.52,23.277 -5.49,10.613 -8.25,23.891 -8.25,39.832 z m 37.02,-0.191 c 0,-13.785 2.23,-23.664 6.71,-29.7 4.5,-6 10.63,-9.015 18.35,-9.015 7.94,0 14.1,2.953 18.45,8.828 4.35,5.91 6.56,16.484 6.56,31.73 0,12.864 -2.29,22.231 -6.84,28.174 -4.54,5.9 -10.7,8.86 -18.51,8.86 -7.44,0 -13.43,-2.99 -17.95,-9.02 -4.51,-6.002 -6.77,-15.975 -6.77,-29.857 z m -716.87,1.132 c 0,21.969 5.46,39.075 16.33,51.305 10.9,12.25 26.07,18.36 45.5,18.36 19.93,0 35.29,-6.02 46.08,-18.05 10.76,-12.01 16.17,-28.865 16.17,-50.517 0,-15.73 -2.37,-28.644 -7.09,-38.699 -4.71,-10.063 -11.51,-17.895 -20.4,-23.504 -8.92,-5.613 -19.99,-8.402 -33.29,-8.402 -13.49,0 -24.66,2.414 -33.53,7.242 -8.84,4.855 -16,12.504 -21.52,22.969 -5.49,10.468 -8.25,23.566 -8.25,39.296 z m 37.02,-0.187 c 0,-13.602 2.23,-23.348 6.71,-29.301 4.5,-5.922 10.63,-8.898 18.35,-8.898 7.94,0 14.1,2.914 18.45,8.711 4.35,5.828 6.55,16.265 6.55,31.304 0,12.696 -2.28,21.938 -6.82,27.796 -4.55,5.83 -10.71,8.74 -18.52,8.74 -7.44,0 -13.43,-2.94 -17.95,-8.89 -4.51,-5.931 -6.77,-15.767 -6.77,-29.462 z m 791.46,69.852 h 36.53 l 0.05,-110.942 40.95,-0.043 0.2,-24.941 h -77.73 z m -691.84,0 h 36.53 l 0.05,-110.942 40.95,-0.043 0.2,-24.941 h -77.73 z m 791.43,0 h 35.99 V 908.094 h -35.99 z m -1644.466,0 H 652.07 V 908.094 h -35.996 z m 1717.726,0 h 29.59 l 39.11,-74.239 v 74.239 h 27.32 V 908.094 h -29.24 l -42.4,74.621 v -74.621 h -24.37 z m -1502.206,0 h 28.984 l 39.711,-74.668 v 74.668 h 27.32 V 908.094 h -29.242 l -42.402,74.101 v -74.101 h -24.371 z m -140.094,0 h 27.773 l 40.922,-75.192 v 75.192 h 27.321 V 908.094 h -29.239 l -42.406,73.664 V 908.094 H 691.5 Z m 1769.31,0 h 76.12 v -27.18 h -40.39 v -30.301 h 40.39 v -24.851 h -40.39 v -27.961 h 40.39 v -25.633 h -40.39 -35.73 v 25.633 27.961 24.851 30.301 z m -1489.279,0 h 76.119 v -27.18 h -40.39 v -30.301 h 40.39 v -24.851 h -40.39 v -27.961 h 40.39 v -25.633 h -40.39 -35.729 v 25.633 27.961 24.851 30.301 z m 738.089,-37.49 v 27.74 c -9.24,4.84 -25.67,9.75 -39.38,9.75 -20.47,0 -49.81,-14.32 -50.42,-43.16 -0.3,-13.989 9.84,-29.055 24.85,-36.184 14.45,-6.863 33.32,-5.508 32.73,-18.711 -0.72,-16.301 -39.78,-13.625 -54.89,-2.985 v -29.835 c 11.23,-5.051 28.85,-7.528 43.55,-7.161 24.11,0.61 50.95,20.977 51.62,43.864 0.64,21.863 -7.73,30.933 -23.24,37.332 -15.77,6.511 -35.74,6.367 -34.94,17.86 1.19,16.96 34.95,12.26 50.12,1.49"
         style="fill:#fce732;fill-opacity:1;fill-rule:evenodd;stroke:none"
         id="path24" />
      <path
         d="M 199.098,410.375 H 2759.81 l 54.04,-51.453 V 194.758 l -56.62,-56.356 H 199.094 l -61.762,53.907 V 351.57 l 61.766,58.805"
         style="fill:#fde833;fill-opacity:1;fill-rule:evenodd;stroke:none"
         id="path26" />
      <path
         d="m 844.719,200.504 0.011,-32.449 h -8.66 v 57.113 h 10.719 l 14.992,-31.434 12.653,31.434 h 7.968 v -57.113 h -8.867 l -0.144,32.383 -13.039,-31.184 z m 503.641,-16.555 c 0,-5.14 -1.73,-9.062 -5.21,-11.793 -3.47,-2.73 -8.49,-4.101 -15.04,-4.101 -6.41,0 -11.86,0.949 -16.35,2.82 v 10.098 c 5.51,-2.68 10.55,-4.012 15.15,-4.012 2.61,0 4.59,0.539 5.91,1.613 1.33,1.078 2,2.543 2,4.403 0,1.816 -0.79,3.484 -2.37,5.011 -1.57,1.508 -4.18,3.192 -7.81,5.047 -3.14,1.629 -5.55,3.18 -7.16,4.668 -1.64,1.496 -2.89,3.164 -3.78,5.024 -0.9,1.847 -1.34,4 -1.34,6.445 0,4.719 1.75,8.453 5.27,11.191 3.51,2.758 8.21,4.141 14.11,4.141 5.64,0 11.07,-1.18 16.28,-3.539 l -4.54,-8.176 c -1.62,0.691 -3.3,1.32 -5.07,1.871 -1.76,0.551 -3.64,0.832 -5.66,0.832 -2.21,0 -3.91,-0.551 -5.1,-1.64 -1.2,-1.09 -1.79,-2.579 -1.79,-4.45 0,-1.851 0.71,-3.472 2.14,-4.839 1.42,-1.375 3.91,-2.938 7.47,-4.696 4.8,-2.41 8.15,-4.855 10.06,-7.355 1.88,-2.512 2.83,-5.36 2.83,-8.563 z m -58.61,-15.894 v 54.898 h 10.7 v -54.898 z m -40.21,0 v 54.898 h 10.78 v -45.969 h 14.93 v -8.929 z m -43.14,28.273 c 0,-6.254 0.81,-11.023 2.46,-14.301 1.65,-3.285 4.07,-4.922 7.26,-4.922 6.44,0 9.66,6.407 9.66,19.223 0,12.82 -3.19,19.231 -9.58,19.231 -3.24,0 -5.69,-1.629 -7.34,-4.899 -1.65,-3.265 -2.46,-8.035 -2.46,-14.332 z m 30.31,0 c 0,-9.086 -1.78,-16.058 -5.32,-20.945 -3.57,-4.879 -8.65,-7.328 -15.27,-7.328 -6.65,0 -11.74,2.433 -15.3,7.308 -3.56,4.864 -5.34,11.879 -5.34,21.043 0,9.09 1.78,16.063 5.34,20.907 3.56,4.847 8.68,7.269 15.38,7.269 6.61,0 11.69,-2.437 15.23,-7.309 3.52,-4.867 5.28,-11.851 5.28,-20.945 z m -79.07,0.485 h 2.23 c 2.85,0 4.99,0.695 6.4,2.066 1.39,1.387 2.09,3.629 2.09,6.769 0,2.872 -0.65,5.012 -1.93,6.395 -1.28,1.395 -3.27,2.09 -5.97,2.09 h -2.82 z m 22.52,9.246 c 0,-5.832 -1.68,-10.305 -5.03,-13.434 -3.37,-3.117 -8.22,-4.668 -14.58,-4.668 h -2.91 v -19.902 h -11.67 v 54.898 h 15.92 c 12.18,0 18.27,-5.629 18.27,-16.894 z m -66.77,-15.102 -3.43,12.77 c -0.19,0.781 -0.66,2.726 -1.38,5.843 -0.72,3.114 -1.15,5.203 -1.29,6.254 -0.39,-2.148 -0.87,-4.523 -1.46,-7.129 -0.58,-2.586 -2.12,-8.496 -4.57,-17.738 z m 5.93,-22.902 -3.69,13.855 h -16.74 l -3.69,-13.855 h -11.96 l 15.92,55.129 h 16.22 l 15.94,-55.129 z m -45.41,0 h -31.51 v 54.898 h 31.51 v -8.82 h -18.51 v -13.074 h 17.17 v -8.856 h -17.17 v -15.219 h 18.51 z m -47.63,0 h -12.43 l -16.916,39.773 h -0.485 c 0.625,-3.039 0.934,-6.297 0.934,-9.765 v -30.008 h -9.426 v 54.898 h 12.493 l 16.77,-39.351 h 0.41 c -0.47,2.628 -0.7,5.753 -0.7,9.382 v 29.969 h 9.35 z m -57.936,0 H 955.82 l -17.031,39.773 h -0.496 c 0.633,-3.039 0.941,-6.297 0.941,-9.765 v -30.008 h -9.496 v 54.898 h 12.586 l 16.895,-39.351 h 0.414 c -0.477,2.628 -0.711,5.753 -0.711,9.382 v 29.969 h 9.422 z m -68.067,0 v 54.898 h 10.801 v -54.898 z m 513.203,32.015 v -31.156 h -8.35 v 54.836 h 10.34 l 14.46,-30.176 12.2,30.176 h 7.69 v -54.836 h -8.56 l -0.14,31.094 -12.57,-29.942 z m 52.91,-31.156 v 54.836 h 9.26 v -54.836 z m 170.07,0 h -30.5 v 54.836 h 30.5 v -8.805 h -17.91 v -13.058 h 16.62 v -8.852 h -16.62 v -15.199 h 17.91 z m -109.27,0 h -11.86 l -16.14,39.731 h -0.47 c 0.6,-3.036 0.89,-6.29 0.89,-9.758 v -29.973 h -8.99 v 54.836 h 11.92 l 16.01,-39.305 h 0.38 c -0.45,2.621 -0.67,5.75 -0.67,9.371 v 29.934 h 8.93 z m 248.13,0 h -9.42 v 45.875 h -9.72 v 8.961 h 28.87 v -8.961 h -9.73 z m -31.53,27.438 c 0,-9.27 -1.83,-16.383 -5.47,-21.364 -3.64,-4.98 -8.86,-7.48 -15.64,-7.48 -6.8,0 -12.03,2.488 -15.66,7.453 -3.66,4.969 -5.48,12.121 -5.48,21.469 0,9.269 1.82,16.383 5.48,21.324 3.63,4.945 8.89,7.414 15.75,7.414 6.77,0 11.98,-2.48 15.6,-7.453 3.61,-4.969 5.42,-12.094 5.42,-21.363 z m -31.07,0 c 0,-6.379 0.84,-11.247 2.53,-14.59 1.68,-3.348 4.17,-5.02 7.43,-5.02 6.6,0 9.9,6.535 9.9,19.61 0,13.074 -3.27,19.613 -9.81,19.613 -3.32,0 -5.84,-1.664 -7.52,-4.996 -1.69,-3.332 -2.53,-8.196 -2.53,-14.617 z m 117.62,-27.438 -3.74,13.785 h -17.01 l -3.75,-13.785 h -12.14 l 16.17,54.836 h 16.47 l 16.19,-54.836 z m -6.02,22.785 -3.48,12.699 c -0.2,0.774 -0.67,2.715 -1.4,5.813 -0.74,3.098 -1.18,5.176 -1.31,6.223 -0.4,-2.141 -0.89,-4.504 -1.48,-7.09 -0.6,-2.578 -2.15,-8.453 -4.65,-17.645 z m 270.84,-22.785 -3.75,13.785 h -17 l -3.75,-13.785 h -12.14 l 16.16,54.836 h 16.48 l 16.19,-54.836 z m -6.02,22.785 -3.48,12.699 c -0.2,0.774 -0.68,2.715 -1.41,5.813 -0.73,3.098 -1.17,5.176 -1.31,6.223 -0.4,-2.141 -0.88,-4.504 -1.48,-7.09 -0.59,-2.578 -2.14,-8.453 -4.64,-17.645 z m -502.03,-22.785 h -12.2 l -16.61,39.731 h -0.47 c 0.61,-3.036 0.92,-6.29 0.92,-9.754 v -29.977 h -9.26 v 54.836 h 12.26 l 16.46,-39.305 h 0.41 c -0.47,2.621 -0.69,5.75 -0.69,9.371 v 29.934 h 9.18 z m 99.81,14.899 c 0,-5.27 -1.79,-9.297 -5.39,-12.098 -3.59,-2.797 -8.78,-4.207 -15.56,-4.207 -6.63,0 -12.27,0.976 -16.93,2.894 v 10.36 c 5.71,-2.746 10.92,-4.114 15.69,-4.114 2.7,0 4.75,0.551 6.11,1.657 1.37,1.105 2.07,2.605 2.07,4.511 0,1.868 -0.82,3.575 -2.45,5.141 -1.63,1.551 -4.33,3.273 -8.08,5.176 -3.25,1.676 -5.74,3.265 -7.42,4.785 -1.69,1.539 -2.98,3.25 -3.91,5.156 -0.92,1.891 -1.39,4.102 -1.39,6.614 0,4.835 1.82,8.664 5.46,11.476 3.63,2.828 8.51,4.246 14.6,4.246 5.84,0 11.46,-1.207 16.85,-3.629 l -4.7,-8.383 c -1.67,0.704 -3.41,1.352 -5.24,1.915 -1.82,0.566 -3.78,0.855 -5.86,0.855 -2.29,0 -4.05,-0.563 -5.28,-1.684 -1.24,-1.117 -1.85,-2.644 -1.85,-4.558 0,-1.91 0.73,-3.567 2.21,-4.969 1.47,-1.406 4.05,-3.012 7.74,-4.816 4.96,-2.473 8.43,-4.981 10.4,-7.543 1.96,-2.578 2.93,-5.496 2.93,-8.785 z m 329.6,1.402 c 0,-5.27 -1.8,-9.293 -5.39,-12.094 -3.59,-2.801 -8.79,-4.207 -15.56,-4.207 -6.64,0 -12.27,0.973 -16.93,2.895 v 10.355 c 5.7,-2.746 10.92,-4.113 15.68,-4.113 2.7,0 4.75,0.554 6.12,1.656 1.37,1.106 2.06,2.606 2.06,4.508 0,1.871 -0.82,3.578 -2.45,5.144 -1.62,1.551 -4.32,3.27 -8.07,5.18 -3.26,1.668 -5.75,3.258 -7.42,4.785 -1.69,1.539 -2.99,3.246 -3.91,5.153 -0.93,1.894 -1.39,4.101 -1.39,6.613 0,4.84 1.81,8.664 5.46,11.476 3.63,2.829 8.5,4.247 14.6,4.247 5.83,0 11.45,-1.211 16.84,-3.629 l -4.7,-8.387 c -1.67,0.707 -3.41,1.351 -5.24,1.918 -1.81,0.566 -3.77,0.855 -5.85,0.855 -2.3,0 -4.06,-0.562 -5.28,-1.683 -1.25,-1.117 -1.86,-2.645 -1.86,-4.559 0,-1.91 0.74,-3.562 2.21,-4.969 1.48,-1.41 4.06,-3.011 7.74,-4.812 4.96,-2.477 8.43,-4.984 10.4,-7.547 1.96,-2.578 2.94,-5.5 2.94,-8.785 z M 1896.2,223.75 h 9.82 v -33.613 c 0,-5.024 2.67,-12.383 10.84,-12.532 8.17,-0.152 12.19,6.633 12.19,11.856 v 34.289 h 9.83 v -36.66 c 1.35,-7.317 -3.38,-18.176 -21.68,-18.176 -18.3,0 -20.33,10.281 -21,18.176 z m 61.99,-41.965 c 3.55,0 6.44,-2.879 6.44,-6.433 0,-3.559 -2.89,-6.438 -6.44,-6.438 -3.56,0 -6.44,2.879 -6.44,6.438 0,3.554 2.88,6.433 6.44,6.433 z m -93.5,0 c 3.56,0 6.44,-2.879 6.44,-6.433 0,-6.383 -4.15,-11.196 -10.22,-12.766 1.37,2.547 2.52,5.094 0.23,7.391 -1.74,1.152 -2.89,3.128 -2.89,5.375 0,3.554 2.89,6.433 6.44,6.433 z m -502.3,1.676 c 3.56,0 6.44,-2.883 6.44,-6.438 0,-6.378 -4.15,-11.195 -10.21,-12.761 1.36,2.543 2.51,5.093 0.23,7.39 -1.74,1.149 -2.89,3.125 -2.89,5.371 0,3.555 2.88,6.438 6.43,6.438 z m 674.73,-1.676 c 3.56,0 6.44,-2.879 6.44,-6.433 0,-3.559 -2.88,-6.438 -6.44,-6.438 -3.55,0 -6.44,2.879 -6.44,6.438 0,3.554 2.89,6.433 6.44,6.433 z m 90.11,0 c 3.56,0 6.44,-2.879 6.44,-6.433 0,-3.559 -2.88,-6.438 -6.44,-6.438 -3.55,0 -6.43,2.879 -6.43,6.438 0,3.554 2.88,6.433 6.43,6.433"
         style="fill:#f21b16;fill-opacity:1;fill-rule:nonzero;stroke:none"
         id="path28" />
      <path
         d="m 204.047,317.465 0.016,-69.371 h -15.036 v 122.094 h 18.61 l 26.031,-67.184 21.973,67.184 h 13.836 V 248.094 h -15.399 l -0.254,69.222 -22.636,-66.656 z m 690.433,0.5 0.012,-69.367 h -15.035 v 122.09 h 18.613 l 26.028,-67.184 21.976,67.184 h 13.836 v -122.09 h -15.402 l -0.254,69.222 -22.633,-66.656 z m 843.11,-17.008 0.01,-52.359 h -12.29 v 92.16 h 15.21 l 21.26,-50.711 17.95,50.711 h 11.3 v -92.16 h -12.58 l -0.2,52.25 -18.5,-50.313 z m 252.3,0 0.01,-52.359 h -12.29 v 92.16 h 15.21 l 21.26,-50.711 17.96,50.711 h 11.3 v -92.16 h -12.59 l -0.2,52.25 -18.5,-50.313 z m 443.79,0 0.01,-52.359 h -12.71 v 92.16 h 15.73 l 22,-50.711 18.57,50.711 h 11.69 v -92.16 h -13.01 l -0.21,52.25 -19.13,-50.313 z M 287.34,247.961 v 86.781 h 14.621 v -86.781 z m 83.773,0 H 354.16 l -23.07,62.871 h -0.66 c 0.851,-4.801 1.269,-9.949 1.269,-15.441 v -47.43 h -12.855 v 86.781 h 17.039 l 22.879,-62.207 h 0.554 c -0.644,4.156 -0.957,9.102 -0.957,14.836 v 47.371 h 12.754 z m 63.075,0 h -16.833 l -22.906,62.871 h -0.652 c 0.844,-4.801 1.262,-9.949 1.262,-15.441 v -47.43 h -12.77 v 86.781 h 16.918 l 22.715,-62.207 h 0.555 c -0.641,4.156 -0.954,9.102 -0.954,14.836 v 47.371 h 12.665 z m 60.292,0 h -42.664 v 86.781 h 42.664 v -13.941 h -25.054 v -20.668 h 23.242 v -14 h -23.242 v -24.051 h 25.054 z m 51.04,0 -4.555,21.902 h -20.668 l -4.559,-21.902 h -14.765 l 19.652,87.148 h 20.027 l 19.688,-87.148 z m -7.317,36.207 -4.238,20.18 c -0.242,1.238 -0.817,4.316 -1.703,9.238 -0.891,4.926 -1.426,8.227 -1.594,9.887 -0.484,-3.399 -1.074,-7.149 -1.797,-11.262 -0.723,-4.09 -2.613,-13.434 -5.652,-28.043 z m 77.789,23.867 c 0,-9.219 -2.277,-16.289 -6.82,-21.234 -4.559,-4.926 -11.125,-7.375 -19.731,-7.375 h -3.945 v -31.465 h -15.805 v 86.781 h 21.555 c 16.496,0 24.746,-8.894 24.746,-26.707 z m -30.496,-14.609 h 3.016 c 3.863,0 6.758,1.094 8.66,3.265 1.887,2.188 2.84,5.735 2.84,10.696 0,4.539 -0.875,7.926 -2.621,10.113 -1.723,2.207 -4.422,3.301 -8.071,3.301 h -3.824 z m 97.285,-1.039 c 0,-14.367 -2.41,-25.387 -7.218,-33.106 -4.821,-7.722 -11.711,-11.593 -20.672,-11.593 -8.993,0 -15.903,3.851 -20.707,11.55 -4.825,7.7 -7.235,18.782 -7.235,33.27 0,14.367 2.41,25.39 7.235,33.051 4.804,7.66 11.75,11.488 20.816,11.488 8.957,0 15.832,-3.848 20.617,-11.551 4.77,-7.699 7.164,-18.742 7.164,-33.109 z m -41.054,0 c 0,-9.887 1.105,-17.426 3.339,-22.614 2.227,-5.187 5.508,-7.781 9.825,-7.781 8.722,0 13.074,10.133 13.074,30.395 0,20.265 -4.313,30.394 -12.965,30.394 -4.387,0 -7.707,-2.574 -9.934,-7.738 -2.234,-5.168 -3.339,-12.707 -3.339,-22.656 z m 56.328,-44.426 v 86.781 h 14.597 v -72.66 h 20.215 v -14.121 z m 43.484,0 v 86.781 h 19.156 v -86.781 z m 82.633,23.926 c 0,-8.125 -2.352,-14.324 -7.051,-18.641 -4.703,-4.312 -11.5,-6.484 -20.363,-6.484 -8.684,0 -16.059,1.5 -22.156,4.457 v 15.969 c 7.468,-4.235 14.289,-6.34 20.527,-6.34 3.535,0 6.211,0.847 8.004,2.55 1.793,1.704 2.699,4.012 2.699,6.954 0,2.875 -1.07,5.507 -3.211,7.918 -2.117,2.394 -5.652,5.046 -10.566,7.984 -4.258,2.574 -7.516,5.023 -9.703,7.375 -2.211,2.371 -3.911,5.004 -5.118,7.941 -1.211,2.922 -1.816,6.325 -1.816,10.196 0,7.453 2.375,13.351 7.145,17.687 4.746,4.356 11.121,6.547 19.105,6.547 7.633,0 14.988,-1.867 22.035,-5.594 l -6.14,-12.926 c -2.188,1.094 -4.469,2.086 -6.868,2.958 -2.375,0.871 -4.929,1.316 -7.656,1.316 -3,0 -5.305,-0.871 -6.91,-2.594 -1.629,-1.722 -2.422,-4.074 -2.422,-7.031 0,-2.938 0.957,-5.492 2.891,-7.656 1.929,-2.172 5.3,-4.641 10.117,-7.418 6.496,-3.813 11.035,-7.68 13.617,-11.629 2.559,-3.977 3.84,-8.469 3.84,-13.539 z m 13.531,17.496 v 13.879 h 28.738 v -13.879 z m 197.517,2.863 c 0,-14.031 -2.37,-24.793 -7.1,-32.332 -4.74,-7.539 -11.52,-11.316 -20.34,-11.316 -8.846,0 -15.643,3.757 -20.374,11.277 -4.742,7.52 -7.117,18.34 -7.117,32.488 0,14.032 2.375,24.793 7.117,32.274 4.731,7.48 11.563,11.218 20.484,11.218 8.81,0 15.57,-3.757 20.29,-11.277 4.69,-7.519 7.04,-18.305 7.04,-32.332 z m -40.392,0 c 0,-9.656 1.09,-17.016 3.285,-22.082 2.187,-5.062 5.427,-7.598 9.667,-7.598 8.58,0 12.87,9.895 12.87,29.68 0,19.785 -4.25,29.68 -12.76,29.68 -4.32,0 -7.59,-2.512 -9.777,-7.559 -2.195,-5.047 -3.285,-12.406 -3.285,-22.121 z m 55.262,-43.648 v 84.746 h 14.21 v -70.957 h 19.7 v -13.789 z m 51.16,0 v 84.746 h 13.37 v -84.746 z m 85.86,0 h -17.36 l -23.62,61.398 h -0.68 c 0.87,-4.691 1.3,-9.719 1.3,-15.082 v -46.316 h -13.16 v 84.746 h 17.45 l 23.42,-60.746 h 0.57 c -0.66,4.058 -0.98,8.882 -0.98,14.484 v 46.262 h 13.06 z m 54.46,0 h -37.12 v 84.746 h 37.12 V 319.73 h -21.8 V 299.547 H 1240 v -13.672 h -20.23 v -23.488 h 21.8 z m 112.79,90.695 c 0,-13.738 -3.15,-24.273 -9.41,-31.645 -6.29,-7.335 -15.35,-10.988 -27.22,-10.988 h -5.44 v -46.894 h -21.81 v 129.328 h 29.74 c 22.76,0 34.14,-13.254 34.14,-39.801 z m -42.07,-21.77 h 4.16 c 5.33,0 9.32,1.633 11.95,4.864 2.6,3.258 3.91,8.543 3.91,15.941 0,6.762 -1.2,11.809 -3.61,15.07 -2.38,3.29 -6.1,4.918 -11.13,4.918 h -5.28 z m 104.26,-25.277 c 0,-14.031 -2.36,-24.793 -7.09,-32.332 -4.75,-7.539 -11.53,-11.316 -20.34,-11.316 -8.85,0 -15.65,3.757 -20.38,11.277 -4.74,7.52 -7.11,18.34 -7.11,32.488 0,14.032 2.37,24.793 7.11,32.274 4.73,7.48 11.56,11.218 20.48,11.218 8.82,0 15.58,-3.757 20.29,-11.277 4.69,-7.519 7.04,-18.305 7.04,-32.332 z m -40.39,0 c 0,-9.656 1.09,-17.016 3.29,-22.082 2.19,-5.062 5.43,-7.598 9.67,-7.598 8.58,0 12.86,9.895 12.86,29.68 0,19.785 -4.24,29.68 -12.76,29.68 -4.31,0 -7.58,-2.512 -9.77,-7.559 -2.2,-5.047 -3.29,-12.406 -3.29,-22.121 z m 114.89,-42.48 h -17.77 l -7.48,44.398 c -1.16,6.074 -1.98,13.238 -2.46,21.508 l -0.41,-4.293 -2.16,-17.449 -7.26,-44.164 h -17.77 l -13.85,84.742 h 13.96 l 6.85,-47.82 c 0.66,-4.79 1.55,-12.309 2.66,-22.54 0.87,10.348 1.69,17.75 2.46,22.2 l 8.15,48.16 h 14.74 l 8.15,-48.16 c 1.09,-7.16 1.94,-14.602 2.57,-22.321 1.21,11.442 2.11,18.996 2.66,22.661 l 6.64,47.82 h 14.06 z m 70.6,-1.168 h -38.97 v 84.746 h 38.97 V 319.73 h -22.89 v -20.183 h 21.23 v -13.672 h -21.23 v -23.488 h 22.89 z m 35.66,32.984 v -32.984 h -17.92 v 84.746 h 23.45 c 9.92,0 17.25,-2.059 21.97,-6.192 4.73,-4.136 7.09,-10.468 7.09,-18.961 0,-10.703 -4.12,-18.183 -12.33,-22.433 l 18.51,-37.16 h -19.16 l -15.22,32.984 z m 0,13.57 h 4.61 c 4.21,0 7.24,1.051 9.08,3.149 1.85,2.117 2.77,5.242 2.77,9.418 0,4.336 -0.96,7.418 -2.92,9.258 -1.96,1.82 -4.97,2.753 -9.06,2.753 h -4.48 z m 86.07,-46.554 v 128.629 h 19.6 V 248.598 Z m 179.34,60.406 c 0,-9.27 -2.38,-16.383 -7.12,-21.352 -4.76,-4.953 -11.61,-7.414 -20.59,-7.414 h -4.12 v -31.64 h -16.5 v 87.257 h 22.5 c 17.22,0 25.83,-8.941 25.83,-26.851 z m -31.83,-14.691 h 3.15 c 4.03,0 7.05,1.101 9.04,3.281 1.97,2.199 2.96,5.765 2.96,10.758 0,4.562 -0.91,7.964 -2.73,10.164 -1.8,2.222 -4.62,3.324 -8.43,3.324 h -3.99 z m 49.4,-45.715 v 87.257 h 14.64 v -73.058 h 20.28 v -14.199 z m 84.03,0 h -38.26 v 87.257 h 38.26 V 321.84 h -22.47 v -20.781 h 20.85 v -14.082 h -20.85 v -24.18 h 22.47 z m 137.03,0 h -38.27 v 87.257 h 38.27 V 321.84 h -22.47 v -20.781 h 20.84 v -14.082 h -20.84 v -24.18 h 22.47 z m 77.29,0 h -17.87 l -24.32,63.218 h -0.7 c 0.9,-4.828 1.34,-10.003 1.34,-15.527 v -47.691 h -13.56 v 87.257 h 17.97 l 24.12,-62.546 h 0.58 c -0.67,4.175 -1,9.148 -1,14.914 v 47.632 h 13.44 z m 38.05,0 h -14.59 v 72.996 h -15.06 v 14.261 h 44.73 v -14.261 h -15.08 z m 103.83,110.195 c -5.36,0 -9.57,-3.957 -12.65,-11.926 -3.09,-7.937 -4.61,-19.027 -4.61,-33.179 0,-29.5 6.03,-44.247 18.15,-44.247 5.28,0 10.85,2.141 16.65,6.418 v -21.078 c -4.89,-4.101 -11.16,-6.183 -18.78,-6.183 -11.27,0 -19.95,5.707 -26.01,17.125 -6.05,11.418 -9.07,27.445 -9.07,48.14 0,20.668 3.11,36.782 9.35,48.348 6.25,11.535 14.9,17.336 26.01,17.336 3.65,0 7.15,-0.656 10.52,-1.934 3.35,-1.277 6.95,-3.508 10.78,-6.691 l -6.17,-19.266 c -2.06,1.813 -4.24,3.446 -6.57,4.934 -2.34,1.488 -4.87,2.203 -7.6,2.203 z m 85.56,-66.547 c 0,-14.031 -2.37,-24.793 -7.1,-32.332 -4.75,-7.539 -11.53,-11.316 -20.34,-11.316 -8.85,0 -15.65,3.757 -20.37,11.277 -4.75,7.52 -7.13,18.34 -7.13,32.488 0,14.032 2.38,24.793 7.13,32.274 4.72,7.48 11.56,11.218 20.48,11.218 8.81,0 15.57,-3.757 20.28,-11.277 4.69,-7.519 7.05,-18.305 7.05,-32.332 z m -40.39,0 c 0,-9.656 1.08,-17.016 3.28,-22.082 2.19,-5.062 5.42,-7.598 9.67,-7.598 8.58,0 12.86,9.895 12.86,29.68 0,19.785 -4.24,29.68 -12.75,29.68 -4.32,0 -7.59,-2.512 -9.78,-7.559 -2.2,-5.047 -3.28,-12.406 -3.28,-22.121 z m 194.26,15.016 c 0,-9 -2.42,-15.907 -7.25,-20.735 -4.84,-4.808 -11.81,-7.203 -20.95,-7.203 h -4.2 v -30.726 h -16.79 v 84.746 h 22.9 c 17.53,0 26.29,-8.688 26.29,-26.082 z m -32.4,-14.266 h 3.21 c 4.1,0 7.18,1.07 9.2,3.188 2,2.136 3.01,5.601 3.01,10.449 0,4.43 -0.92,7.734 -2.78,9.871 -1.83,2.156 -4.69,3.226 -8.57,3.226 h -4.07 z m 81.92,-44.398 -5.12,21.386 h -23.24 l -5.12,-21.386 h -16.6 l 22.09,85.101 H 2604 l 22.13,-85.101 z m -8.22,35.355 -4.77,19.711 c -0.27,1.203 -0.91,4.215 -1.92,9.024 -1,4.804 -1.6,8.031 -1.79,9.652 -0.54,-3.32 -1.2,-6.985 -2.02,-11 -0.8,-3.996 -2.93,-13.121 -6.35,-27.387 z m 88.64,-35.355 h -17.35 l -23.63,61.398 h -0.68 c 0.88,-4.691 1.31,-9.719 1.31,-15.082 v -46.316 h -13.17 v 84.746 h 17.45 l 23.43,-60.746 h 0.57 c -0.66,4.058 -0.98,8.882 -0.98,14.484 v 46.262 h 13.05 z m 39.34,52.472 10.19,33.438 h 14.9 l -18.12,-50.77 v -33.972 h -14.01 v 33.336 l -18.09,51.406 h 15 l 10.13,-33.438"
         style="fill:#f21b16;fill-opacity:1;fill-rule:nonzero;stroke:none"
         id="path30" />
      <path
         d="m 146.184,36.9453 h -19.192 l 48.375,60.1641 h -19.82 l 9.449,11.7496 h 58.863 L 214.41,97.1094 h -19.847 z m 46.855,20.2188 -16.254,-20.2188 h -13.914 l 41.766,51.9375 h 18.207 c 7.699,0 12.375,-1.2578 14.008,-3.793 1.625,-2.5351 0.339,-6.414 -3.844,-11.621 -5.278,-6.5586 -12.156,-11.1407 -20.625,-13.75 L 208.438,36.9453 H 193.566 L 198,57.1641 Z m 6.691,8.3164 h 3.583 c 3.261,0 6.136,0.6406 8.601,1.9258 2.473,1.2968 4.731,3.2148 6.789,5.7734 2.133,2.6562 2.906,4.5469 2.293,5.6758 -0.621,1.1172 -2.504,1.6836 -5.68,1.6836 h -3.472 z m 60.665,-27.8164 6.246,13.1054 H 247.156 L 232.324,37.6641 h -13.918 l 60.465,52.1562 h 18.871 L 274.359,37.6641 Z m 10.527,21.6679 5.715,12.0782 c 0.367,0.7382 1.308,2.5859 2.84,5.5312 1.535,2.9453 2.617,4.9219 3.257,5.918 -2.089,-2.0391 -4.457,-4.2813 -7.113,-6.7461 -2.652,-2.4492 -8.93,-8.0391 -18.82,-16.7813 z m 65.816,22.5586 c -4,0 -8.441,-1.6172 -13.359,-4.8672 -4.906,-3.2343 -9.68,-7.7617 -14.32,-13.5312 -9.672,-12.0313 -10.004,-18.0469 -0.961,-18.0469 3.945,0 8.8,0.875 14.535,2.6211 l -6.914,-8.5976 c -4.996,-1.6719 -10.356,-2.5235 -16.047,-2.5235 -8.418,0 -13.016,2.332 -13.797,6.9883 -0.777,4.6523 2.227,11.1914 9.016,19.6328 6.777,8.4258 14.386,15 22.836,19.7188 8.445,4.7031 16.808,7.0664 25.097,7.0664 2.727,0 5.129,-0.2657 7.227,-0.7891 2.074,-0.5195 4.031,-1.4297 5.851,-2.7266 l -10.925,-7.8593 c -0.942,0.7422 -2.032,1.4062 -3.289,2.0156 -1.258,0.6055 -2.911,0.8984 -4.95,0.8984 z m 15.657,-44.2265 h -13.86 l 34.938,43.4492 h -14.317 l 6.828,8.4844 h 42.508 l -6.824,-8.4844 h -14.336 z m 93.316,26.0351 c -6.914,-8.6015 -14.539,-15.1953 -22.879,-19.8164 -8.359,-4.6211 -16.855,-6.9375 -25.48,-6.9375 -8.661,0 -13.457,2.3047 -14.379,6.9141 -0.942,4.6054 2.074,11.2383 9.043,19.9101 6.918,8.5977 14.543,15.1953 22.871,19.7813 8.312,4.582 16.843,6.875 25.574,6.875 8.621,0 13.387,-2.3047 14.289,-6.9141 0.887,-4.6094 -2.125,-11.2148 -9.039,-19.8125 z m -39.523,0 c -4.758,-5.9179 -7.321,-10.4297 -7.672,-13.5351 -0.348,-3.1055 1.566,-4.6563 5.718,-4.6563 8.399,0 17.465,6.0625 27.215,18.1914 9.75,12.125 10.473,18.1914 2.145,18.1914 -4.227,0 -8.66,-1.5429 -13.293,-4.6367 -4.633,-3.0937 -9.324,-7.6016 -14.113,-13.5547 z M 465.84,57.875 449.586,37.6641 h -13.918 l 41.766,51.9336 h 18.207 c 7.699,0 12.379,-1.2618 14.007,-3.793 1.625,-2.5352 0.34,-6.4141 -3.843,-11.6172 C 500.527,67.6289 493.648,63.043 485.18,60.4336 l -3.942,-22.7695 h -14.875 l 4.438,20.2109 z m 6.687,8.3203 h 3.582 c 3.262,0 6.137,0.6406 8.598,1.9297 2.481,1.2969 4.734,3.2148 6.793,5.7695 2.137,2.6563 2.902,4.5508 2.293,5.6758 -0.621,1.1172 -2.504,1.6875 -5.68,1.6875 h -3.476 z m 65.688,-14.2109 c -3.91,-4.8633 -8.656,-8.5742 -14.262,-11.1563 -5.601,-2.5859 -11.746,-3.8828 -18.394,-3.8828 -6.512,0 -11.325,0.8985 -14.477,2.6719 l 7.684,9.5547 c 3.57,-2.5391 7.668,-3.7969 12.347,-3.7969 2.653,0 5.071,0.5078 7.231,1.5273 2.168,1.0196 3.961,2.4024 5.371,4.1602 1.387,1.7188 1.851,3.2969 1.406,4.7422 -0.437,1.4297 -1.816,3.0195 -4.082,4.7773 -1.961,1.5391 -3.223,3.0078 -3.734,4.4141 -0.516,1.418 -0.524,2.9961 -0.016,4.7539 0.496,1.7461 1.68,3.7813 3.543,6.0977 3.586,4.4609 8.203,7.9921 13.871,10.5898 5.66,2.6055 11.496,3.9141 17.481,3.9141 5.73,0 10.347,-1.1172 13.843,-3.3477 l -10.828,-7.7344 c -1.117,0.6563 -2.351,1.2461 -3.73,1.7696 -1.364,0.5195 -3.067,0.789 -5.11,0.789 -2.25,0 -4.398,-0.5234 -6.433,-1.5547 -2.051,-1.0273 -3.774,-2.4336 -5.199,-4.207 -1.411,-1.7578 -1.926,-3.2851 -1.52,-4.582 0.406,-1.3008 1.746,-2.7813 4.023,-4.4414 3.04,-2.2774 4.579,-4.5938 4.618,-6.9571 0.007,-2.3789 -1.196,-5.0703 -3.633,-8.1015 z m 16.383,1.1133 6.679,8.3046 h 25.727 l -6.676,-8.3046 z m 120.89,33.6328 c -6.14,-7.6407 -13.633,-13.5 -22.465,-17.5977 -8.839,-4.0781 -18.476,-6.1094 -28.964,-6.1094 h -4.813 L 598.277,36.9453 h -19.261 l 57.824,71.9137 h 26.277 c 20.11,0 24.242,-7.367 12.371,-22.1285 z M 628.574,74.625 h 3.676 c 4.715,0 8.973,0.9102 12.738,2.7031 3.754,1.8125 7.278,4.75 10.586,8.8672 3.024,3.7617 4.215,6.5664 3.543,8.375 -0.629,1.832 -3.187,2.7383 -7.637,2.7383 h -4.664 z m 83.887,-10.6523 c -6.914,-8.5977 -14.543,-15.1954 -22.883,-19.8164 -8.359,-4.6211 -16.851,-6.9375 -25.48,-6.9375 -8.657,0 -13.453,2.3046 -14.375,6.914 -0.942,4.6094 2.07,11.2422 9.043,19.9141 6.914,8.5937 14.539,15.1953 22.871,19.7734 8.312,4.586 16.84,6.8789 25.57,6.8789 8.625,0 13.391,-2.3008 14.293,-6.9101 0.887,-4.6094 -2.125,-11.2188 -9.039,-19.8164 z m -39.523,0 c -4.758,-5.918 -7.321,-10.4297 -7.672,-13.5352 -0.352,-3.1016 1.562,-4.6562 5.718,-4.6562 8.395,0 17.461,6.0625 27.215,18.1914 9.75,12.125 10.473,18.1875 2.145,18.1875 -4.227,0 -8.66,-1.5391 -13.297,-4.6329 -4.629,-3.0898 -9.32,-7.6015 -14.109,-13.5546 z M 764.41,37.9336 h -17.39 l 14.57,27.2148 c 1.859,3.7227 4.586,8.1133 8.191,13.1797 L 767.262,75.6992 756.547,65.0039 727.68,37.9336 H 710.289 L 738.508,89.875 H 752.16 L 735.293,60.5625 c -1.711,-2.9336 -4.543,-7.5391 -8.504,-13.8086 5.957,6.3399 10.406,10.875 13.352,13.6055 l 31.711,29.5156 h 14.425 L 770.516,60.3594 c -2.465,-4.3906 -5.289,-8.9531 -8.485,-13.6797 6.824,7.0117 11.422,11.6406 13.766,13.8828 l 30.066,29.3125 h 13.758 z m 54.68,0 h -33.715 l 41.766,51.9414 h 33.714 l -6.71,-8.3437 h -19.797 l -9.946,-12.3711 h 18.364 l -6.739,-8.3789 H 817.664 L 806.09,46.3867 h 19.797 z m 41.062,20.2187 -16.257,-20.2187 h -13.911 l 41.762,51.9414 h 18.211 c 7.699,0 12.375,-1.2617 14,-3.7969 1.629,-2.5351 0.344,-6.414 -3.84,-11.6172 -5.273,-6.5625 -12.156,-11.1445 -20.625,-13.7539 l -3.945,-22.7734 h -14.875 l 4.437,20.2187 z m 6.688,8.3204 h 3.578 c 3.266,0 6.137,0.6406 8.605,1.9257 2.477,1.2969 4.731,3.2149 6.79,5.7735 2.136,2.6562 2.902,4.5469 2.292,5.6719 -0.617,1.1171 -2.503,1.6875 -5.679,1.6875 h -3.473 z m 157.38,43.3793 -37.407,-46.5278 c -6.887,-8.5625 -14.946,-15.0937 -24.133,-19.6133 -9.18,-4.5 -19.051,-6.7656 -29.594,-6.7656 -10.293,0 -16.316,2.25 -18.117,6.7149 -1.762,4.4843 0.851,11.1015 7.886,19.8476 l 37.262,46.3442 h 19.121 L 941.191,62.5352 c -7.359,-9.1524 -6.668,-13.7344 2.059,-13.7344 4.063,0 8.145,1.1719 12.234,3.4922 4.102,2.332 7.875,5.6406 11.329,9.9414 l 38.297,47.6176 z m 10.18,-71.9184 h -16.99 l 7.14,37.6328 h -0.66 c -1.46,-2.875 -3.51,-5.9531 -6.16,-9.2422 L 994.906,37.9336 h -12.883 l 41.767,51.9414 h 17.07 l -7.01,-37.2266 h 0.56 c 1.35,2.4805 3.41,5.4414 6.18,8.875 l 22.8,28.3516 h 12.77 z m 15.69,0 41.77,51.9414 h 13.09 l -41.76,-51.9414 z m 51.87,0 h -13.86 l 34.94,43.4531 h -14.32 l 6.83,8.4883 h 42.51 l -6.83,-8.4883 h -14.33 z m 67.89,14.3242 c -3.91,-4.8633 -8.66,-8.5742 -14.26,-11.1562 -5.61,-2.5821 -11.75,-3.8828 -18.4,-3.8828 -6.51,0 -11.32,0.9023 -14.48,2.6679 l 7.69,9.5586 c 3.57,-2.5351 7.67,-3.7969 12.35,-3.7969 2.65,0 5.07,0.5118 7.23,1.5274 2.16,1.0195 3.96,2.4023 5.37,4.1601 1.38,1.7227 1.85,3.2969 1.4,4.7422 -0.43,1.4297 -1.81,3.0196 -4.08,4.7774 -1.96,1.539 -3.22,3.0078 -3.73,4.414 -0.52,1.4219 -0.53,2.9961 -0.02,4.7539 0.5,1.7461 1.69,3.7852 3.54,6.1016 3.59,4.4609 8.21,7.9883 13.88,10.5859 5.66,2.6094 11.49,3.9141 17.48,3.9141 5.73,0 10.35,-1.1133 13.84,-3.3477 l -10.83,-7.7343 c -1.12,0.6562 -2.35,1.25 -3.72,1.7695 -1.37,0.5234 -3.07,0.7891 -5.11,0.7891 -2.26,0 -4.4,-0.5235 -6.44,-1.5547 -2.05,-1.0274 -3.77,-2.4336 -5.2,-4.2071 -1.41,-1.7539 -1.92,-3.2851 -1.52,-4.582 0.41,-1.2969 1.75,-2.7773 4.02,-4.4375 3.04,-2.2812 4.59,-4.5976 4.62,-6.9609 0.01,-2.3789 -1.19,-5.0703 -3.63,-8.1016 z m 21.26,0.0391 6.68,8.3086 h 25.73 l -6.67,-8.3086 z m 350.09,-15.3516 29.57,61.2383 h -0.78 c -2.9,-4.7188 -5.94,-9.0508 -9.1,-12.9805 l -38.81,-48.2578 h -17.84 l 57.83,71.9137 h 29.61 l -27.75,-56.5152 h 0.56 l 63.01,56.5152 h 30.03 L 1599.7,36.9453 h -18.27 l 39.19,48.7461 c 3.26,4.043 6.92,8.1758 10.97,12.4102 h -0.55 l -68.81,-61.1563 z m 114.83,0.7188 6.24,13.1054 h -19.48 l -14.84,-13.1054 h -13.91 l 60.46,52.1562 h 18.88 l -23.39,-52.1562 z m 10.52,21.6679 5.72,12.0782 c 0.37,0.7382 1.31,2.5859 2.84,5.5312 1.53,2.9453 2.61,4.9219 3.26,5.918 -2.1,-2.0391 -4.46,-4.2813 -7.12,-6.7461 -2.65,-2.4492 -8.93,-8.0391 -18.82,-16.7813 z m 70.41,22.5586 c -4,0 -8.44,-1.6172 -13.35,-4.8672 -4.91,-3.2343 -9.68,-7.7617 -14.32,-13.5312 -9.68,-12.0313 -10.01,-18.0469 -0.97,-18.0469 3.95,0 8.8,0.875 14.54,2.6211 l -6.92,-8.5976 c -4.99,-1.6719 -10.35,-2.5235 -16.05,-2.5235 -8.41,0 -13.01,2.332 -13.79,6.9883 -0.78,4.6523 2.22,11.1914 9.01,19.6328 6.78,8.4258 14.39,15 22.84,19.7188 8.45,4.7031 16.81,7.0664 25.1,7.0664 2.72,0 5.13,-0.2657 7.22,-0.7891 2.08,-0.5195 4.04,-1.4297 5.86,-2.7266 l -10.93,-7.8593 c -0.94,0.7422 -2.03,1.4062 -3.29,2.0156 -1.26,0.6055 -2.91,0.8984 -4.95,0.8984 z m 34.28,-44.2265 h -13.89 l 18.31,22.7695 h -18.37 l -18.31,-22.7695 h -13.91 l 41.76,51.9336 h 13.92 l -16.6,-20.6368 h 18.37 l 16.59,20.6368 h 13.9 z m 15.7,0 41.76,51.9336 h 13.1 l -41.76,-51.9336 z m 81.29,0 h -16.99 l 7.14,37.625 h -0.66 c -1.46,-2.875 -3.51,-5.9532 -6.16,-9.2383 l -22.83,-28.3867 h -12.88 l 41.77,51.9336 h 17.07 l -7.01,-37.2266 h 0.55 c 1.36,2.4883 3.42,5.4453 6.18,8.8789 l 22.8,28.3477 h 12.78 z m 46.91,0 h -33.72 l 41.77,51.9336 h 33.71 l -6.71,-8.3399 h -19.8 l -9.94,-12.3672 h 18.36 l -6.74,-8.3828 h -18.36 l -11.58,-14.3906 h 19.8 z m 41.06,20.2109 -16.26,-20.2109 h -13.91 l 41.76,51.9336 H 1986 c 7.7,0 12.38,-1.2618 14,-3.793 1.63,-2.5352 0.34,-6.4141 -3.84,-11.6172 -5.27,-6.5586 -12.15,-11.1445 -20.62,-13.7539 l -3.95,-22.7695 h -14.87 l 4.44,20.2109 z m 6.69,8.3203 h 3.57 c 3.27,0 6.14,0.6406 8.61,1.9297 2.47,1.2969 4.73,3.2148 6.79,5.7695 2.13,2.6563 2.9,4.5508 2.29,5.6758 -0.62,1.1172 -2.5,1.6875 -5.68,1.6875 H 1975 Z m 58.79,2.9141 26.45,20.4883 h 14.58 l -42.76,-31.1133 -16.74,-20.8203 h -13.71 l 16.43,20.4297 7.64,31.5039 h 14.68 z m 18.74,-16.0938 6.68,8.3047 h 25.73 l -6.67,-8.3047 z m 34.27,-16.0703 57.83,71.9137 h 18.12 l -57.82,-71.9137 z m 61.3,0.7188 21.35,44.2265 h -0.55 c -2.1,-3.4101 -4.3,-6.539 -6.59,-9.3789 l -28.02,-34.8476 h -12.88 l 41.76,51.9336 h 21.39 l -20.04,-40.8164 h 0.39 l 45.52,40.8164 H 2220 l -41.76,-51.9336 h -13.2 l 28.31,35.2031 c 2.35,2.9219 4.99,5.9023 7.92,8.9609 h -0.4 l -49.69,-44.164 z m 125.12,35.9531 c -4.43,-5.5195 -9.84,-9.7461 -16.22,-12.707 -6.39,-2.9493 -13.35,-4.418 -20.92,-4.418 h -3.48 l -15.14,-18.8281 h -13.92 l 41.77,51.9336 h 18.98 c 14.52,0 17.5,-5.3204 8.93,-15.9805 z m -33.88,-8.7461 h 2.66 c 3.4,0 6.47,0.6602 9.2,1.9531 2.71,1.3125 5.25,3.4336 7.64,6.4063 2.18,2.7187 3.04,4.7422 2.56,6.0508 -0.45,1.3203 -2.3,1.9765 -5.52,1.9765 h -3.36 z m 14.38,-27.207 41.77,51.9336 h 13.91 l -34.97,-43.4805 h 19.27 l -6.79,-8.4531 z m 75.8,0 h -33.71 l 41.76,51.9336 h 33.72 l -6.72,-8.3399 h -19.79 l -9.95,-12.3672 h 18.37 l -6.74,-8.3828 h -18.37 l -11.57,-14.3906 h 19.8 z m 37.59,0 21.35,44.2265 h -0.56 c -2.09,-3.4101 -4.29,-6.539 -6.58,-9.3789 l -28.02,-34.8476 h -12.89 l 41.77,51.9336 h 21.39 l -20.05,-40.8164 h 0.4 l 45.51,40.8164 h 21.69 l -41.77,-51.9336 h -13.19 l 28.3,35.2031 c 2.35,2.9219 5,5.9023 7.93,8.9609 h -0.4 l -49.7,-44.164 z m 89.16,0 h -33.72 l 41.77,51.9336 h 33.71 l -6.71,-8.3399 h -19.8 l -9.94,-12.3672 h 18.36 l -6.74,-8.3828 h -18.36 l -11.57,-14.3906 h 19.79 z m 63.26,0 h -16.98 l 7.14,37.625 h -0.66 c -1.46,-2.875 -3.52,-5.9532 -6.16,-9.2383 l -22.83,-28.3867 h -12.88 l 41.76,51.9336 h 17.08 l -7.01,-37.2266 h 0.55 c 1.35,2.4883 3.42,5.4453 6.18,8.8789 l 22.8,28.3477 h 12.78 z m 36.15,0 h -13.86 l 34.95,43.4492 h -14.32 l 6.82,8.4844 h 42.52 l -6.83,-8.4844 h -14.33 z m 67.89,14.3203 c -3.91,-4.8633 -8.65,-8.5742 -14.26,-11.1563 -5.6,-2.5859 -11.74,-3.8828 -18.39,-3.8828 -6.51,0 -11.33,0.8985 -14.48,2.6719 l 7.69,9.5547 c 3.56,-2.5391 7.66,-3.7969 12.34,-3.7969 2.66,0 5.07,0.5078 7.24,1.5273 2.16,1.0196 3.95,2.4024 5.37,4.1602 1.38,1.7188 1.85,3.2969 1.4,4.7422 -0.44,1.4297 -1.82,3.0195 -4.08,4.7773 -1.96,1.5391 -3.22,3.0078 -3.74,4.4141 -0.51,1.418 -0.52,2.9961 -0.01,4.7539 0.49,1.7461 1.68,3.7813 3.54,6.0977 3.59,4.4609 8.21,7.9921 13.87,10.5898 5.66,2.6055 11.5,3.9141 17.48,3.9141 5.73,0 10.35,-1.1172 13.85,-3.3477 l -10.83,-7.7344 c -1.12,0.6563 -2.35,1.2461 -3.73,1.7696 -1.36,0.5195 -3.06,0.789 -5.11,0.789 -2.25,0 -4.4,-0.5234 -6.43,-1.5547 -2.05,-1.0273 -3.78,-2.4336 -5.2,-4.207 -1.42,-1.7578 -1.93,-3.2851 -1.52,-4.582 0.4,-1.3008 1.74,-2.7813 4.02,-4.4414 3.04,-2.2774 4.58,-4.5938 4.62,-6.9571 0.01,-2.3789 -1.2,-5.0703 -3.64,-8.1015 z M 1243.33,36.9453 h -19.12 l 57.83,71.9137 h 46.39 l -9.29,-11.5504 h -27.27 L 1275.8,77.3281 h 25.44 l -9.29,-11.5508 h -25.43 z m 73.98,0 6.24,13.1094 h -19.48 l -14.84,-13.1094 h -13.91 l 60.46,52.1563 h 18.87 l -23.38,-52.1563 z m 10.53,21.6719 5.71,12.0781 c 0.37,0.7383 1.31,2.582 2.84,5.5313 1.53,2.9453 2.61,4.9218 3.25,5.914 -2.09,-2.0351 -4.45,-4.2812 -7.11,-6.7383 -2.65,-2.4492 -8.92,-8.039 -18.82,-16.7851 z m 40.2,-1.4531 -16.25,-20.2188 h -13.92 l 41.76,51.9375 h 18.21 c 7.7,0 12.38,-1.2578 14.01,-3.793 1.63,-2.5351 0.34,-6.414 -3.85,-11.621 -5.27,-6.5586 -12.15,-11.1407 -20.62,-13.75 l -3.94,-22.7735 h -14.88 l 4.44,20.2188 z m 6.69,8.3164 h 3.57 c 3.27,0 6.15,0.6406 8.61,1.9258 2.48,1.2968 4.73,3.2148 6.79,5.7734 2.14,2.6562 2.9,4.5469 2.29,5.6758 -0.62,1.1172 -2.5,1.6836 -5.68,1.6836 h -3.47 z m 42.2,-28.5352 21.36,44.2266 h -0.56 c -2.09,-3.4063 -4.3,-6.5352 -6.58,-9.375 l -28.02,-34.8516 h -12.89 l 41.77,51.9375 h 21.38 l -20.04,-40.8164 h 0.4 l 45.52,40.8164 h 21.68 l -41.77,-51.9375 h -13.2 l 28.31,35.2031 c 2.35,2.9219 5,5.9063 7.92,8.9649 h -0.39 l -49.69,-44.168 h -15.2"
         style="fill:#fde833;fill-opacity:1;fill-rule:nonzero;stroke:none"
         id="path32" />
    </g>
  </g>
</svg>
